<?xml version="1.0" encoding="UTF-8"?>
<svg id="Layer_1" data-name="Layer 1" xmlns="http://www.w3.org/2000/svg" viewBox="0 0 1024 486.87">
  <defs>
    <style>
      .cls-1 {
        fill: #fff;
      }
    </style>
  </defs>
  <path class="cls-1" d="M195.28,486.87c-26.75,0-52.39-2.24-76.91-6.69-24.53-4.45-46.81-10.47-66.88-18.06-20.06-7.58-37.23-15.82-51.5-24.75l52.17-99.65c16.05,9.81,32.66,18.17,49.82,25.08,17.16,6.92,34.66,12.15,52.5,15.72,17.83,3.57,35.88,5.35,54.17,5.35,16.49,0,30.65-1.78,42.47-5.35,11.81-3.56,20.95-8.47,27.42-14.72,6.45-6.24,9.7-13.59,9.7-22.07s-4.13-15.6-12.37-21.4c-8.25-5.79-19.06-10.7-32.44-14.71s-28.2-8.03-44.47-12.04c-16.28-4.01-32.55-9.13-48.82-15.38-16.28-6.24-31.21-14.04-44.81-23.41-13.6-9.36-24.41-21.07-32.43-35.11-8.03-14.05-12.04-31.77-12.04-53.17,0-33.44,9.13-62.63,27.42-87.61,18.28-24.96,44.24-44.36,77.91-58.18C199.85,6.92,239.86,0,286.24,0c32.99,0,63.97,3.46,92.96,10.37,28.98,6.92,53.94,16.84,74.9,29.76l-48.82,98.98c-17.83-12.04-37.78-21.07-59.85-27.09-22.07-6.02-44.7-9.03-67.88-9.03-18.29,0-33.67,2-46.14,6.02-12.49,4.01-22.07,9.47-28.76,16.38-6.69,6.92-10.03,14.61-10.03,23.08,0,8.92,4.12,16.28,12.37,22.07,8.25,5.8,19.17,10.7,32.77,14.71,13.59,4.01,28.42,8.14,44.47,12.37,16.05,4.24,32.21,9.26,48.48,15.04,16.27,5.8,31.2,13.16,44.81,22.07,13.59,8.93,24.63,20.3,33.1,34.11,8.46,13.82,12.7,30.99,12.7,51.5,0,33.44-9.36,62.64-28.09,87.61-18.72,24.97-44.92,44.37-78.58,58.18-33.67,13.81-73.46,20.73-119.38,20.73Z"/>
  <path class="cls-1" d="M672.22,477.51l75.57-379.87h-149.14l17.39-88.28h407.95l-18.06,88.28h-149.14l-75.57,379.87h-109.01Z"/>
</svg>